<svg id="Layer_1" data-name="Layer 1" xmlns="http://www.w3.org/2000/svg" viewBox="0 0 400 400"><defs><style>.cls-1,.cls-3{fill:#95c037;}.cls-2,.cls-4{fill:#009cdd;}.cls-3,.cls-4{isolation:isolate;font-size:100px;font-family:Cocon;}</style></defs><path class="cls-1" d="M156.6,87.2v12.9H143.7a43.5,43.5,0,0,0,0,87h84.1a15.62,15.62,0,0,0,15.6-15.6V87.2a43.4,43.4,0,1,0-86.8,0ZM143.7,161a17.4,17.4,0,1,1,0-34.8H174a8.71,8.71,0,0,0,8.7-8.7V87.1a17.4,17.4,0,0,1,34.8,0V161Z"/><path class="cls-2" d="M256.3,100.1H243.4v26.2h12.9a17.4,17.4,0,0,1,0,34.8H243.4v10.4a15.62,15.62,0,0,1-15.6,15.6H217.4V200a17.4,17.4,0,0,1-34.8,0V187.1H156.5V200a43.4,43.4,0,1,0,86.8,0V187.1h12.9a43.5,43.5,0,0,0,.1-87Z"/><text class="cls-3" transform="translate(33.36 327.83)">i</text><text class="cls-4" transform="translate(66.66 327.83)">Petros</text></svg>